<svg xmlns="http://www.w3.org/2000/svg" viewBox="0 0 420 840">
  <defs>
    <linearGradient id="screen" x1="0" y1="0" x2="1" y2="1">
      <stop offset="0" stop-color="#1f1337"/>
      <stop offset="0.5" stop-color="#2c1b4a"/>
      <stop offset="1" stop-color="#3b1e5a"/>
    </linearGradient>
    <linearGradient id="glow" x1="0" y1="0" x2="1" y2="1">
      <stop offset="0" stop-color="#7c3aed"/>
      <stop offset="1" stop-color="#e879f9"/>
    </linearGradient>
  </defs>
  <rect x="24" y="16" width="372" height="808" rx="56" fill="#0b0713" stroke="#3a2a58" stroke-width="2"/>
  <rect x="40" y="40" width="340" height="760" rx="44" fill="url(#screen)"/>
  <rect x="160" y="28" width="100" height="8" rx="4" fill="#3a2a58"/>
  <circle cx="210" cy="72" r="6" fill="#5b3b8f"/>
  <rect x="72" y="140" width="276" height="120" rx="28" fill="#22163c" stroke="#3b2a5a" stroke-width="2"/>
  <rect x="96" y="168" width="120" height="12" rx="6" fill="#c084fc" opacity="0.8"/>
  <rect x="96" y="190" width="188" height="10" rx="5" fill="#9b7dd1" opacity="0.6"/>
  <rect x="96" y="230" width="228" height="10" rx="5" fill="#9b7dd1" opacity="0.4"/>
  <rect x="72" y="300" width="276" height="220" rx="32" fill="#1b1130" stroke="#3b2a5a" stroke-width="2"/>
  <circle cx="136" cy="370" r="44" fill="url(#glow)" opacity="0.8"/>
  <circle cx="210" cy="370" r="44" fill="#2a1b49"/>
  <circle cx="284" cy="370" r="44" fill="#2a1b49"/>
  <rect x="112" y="448" width="196" height="12" rx="6" fill="#c084fc" opacity="0.7"/>
  <rect x="96" y="560" width="228" height="12" rx="6" fill="#7c3aed" opacity="0.55"/>
  <rect x="96" y="588" width="180" height="10" rx="5" fill="#9b7dd1" opacity="0.5"/>
  <rect x="96" y="690" width="228" height="56" rx="20" fill="url(#glow)" opacity="0.9"/>
</svg>
